<svg width="15" height="14" viewBox="0 0 15 14" fill="none" xmlns="http://www.w3.org/2000/svg">
<path d="M6.8512 0.696596C6.88042 0.63757 6.92555 0.587884 6.9815 0.553146C7.03746 0.518408 7.10201 0.5 7.16787 0.5C7.23373 0.5 7.29828 0.518408 7.35423 0.553146C7.41019 0.587884 7.45532 0.63757 7.48453 0.696596L9.02453 3.81593C9.12599 4.02124 9.27574 4.19887 9.46095 4.33356C9.64616 4.46826 9.86128 4.556 10.0879 4.58926L13.5319 5.09326C13.5971 5.10272 13.6584 5.13024 13.7089 5.17273C13.7593 5.21521 13.7968 5.27096 13.8172 5.33367C13.8376 5.39637 13.84 5.46353 13.8243 5.52755C13.8085 5.59157 13.7751 5.6499 13.7279 5.69593L11.2372 8.12126C11.0729 8.28133 10.95 8.47892 10.8791 8.69702C10.8081 8.91511 10.7912 9.14719 10.8299 9.37326L11.4179 12.7999C11.4294 12.8652 11.4223 12.9323 11.3975 12.9937C11.3727 13.0551 11.3312 13.1083 11.2776 13.1473C11.224 13.1862 11.1605 13.2093 11.0944 13.2139C11.0284 13.2185 10.9623 13.2044 10.9039 13.1733L7.8252 11.5546C7.62234 11.4481 7.39665 11.3924 7.16753 11.3924C6.93841 11.3924 6.71272 11.4481 6.50987 11.5546L3.43187 13.1733C3.37342 13.2042 3.30746 13.2181 3.2415 13.2134C3.17554 13.2087 3.11221 13.1856 3.05873 13.1467C3.00525 13.1078 2.96376 13.0547 2.93897 12.9934C2.91419 12.9321 2.90711 12.8651 2.91853 12.7999L3.50587 9.37393C3.54466 9.14775 3.52786 8.91553 3.45689 8.69729C3.38593 8.47906 3.26294 8.28137 3.09853 8.12126L0.607866 5.6966C0.560262 5.65062 0.526529 5.59219 0.510508 5.52798C0.494488 5.46376 0.496824 5.39634 0.517252 5.33339C0.53768 5.27044 0.575378 5.21449 0.626051 5.17192C0.676724 5.12935 0.738335 5.10186 0.803866 5.0926L4.2472 4.58926C4.47404 4.55626 4.68946 4.46863 4.87492 4.33392C5.06039 4.19921 5.21034 4.02144 5.31187 3.81593L6.8512 0.696596Z" fill="#030303" stroke="#030303" stroke-linecap="round" stroke-linejoin="round"/>
</svg>
